<svg width="52" height="55" viewBox="0 0 52 55" fill="none" xmlns="http://www.w3.org/2000/svg">
<path fill-rule="evenodd" clip-rule="evenodd" d="M4.192 0.188967C2.16611 0.726876 0.514505 2.42456 0.10259 4.39224C0.0134929 4.81778 -0.0146188 12.1774 0.00687143 29.4137L0.0374224 53.8322L0.276951 54.1486C0.40868 54.3226 0.660755 54.5711 0.83709 54.701C1.15096 54.9322 1.29896 54.9379 7.71512 54.9686L14.2724 55L14.5603 54.7162L14.8482 54.4322L14.8508 49.9883C14.8531 45.9024 14.8708 45.5066 15.0695 45.0749C15.3894 44.3805 15.9181 44.0553 16.7274 44.0553C17.4397 44.0553 17.8167 44.2484 18.2679 44.8438C18.4983 45.1479 18.5096 45.3386 18.5655 49.8584L18.6236 54.5568L18.8993 54.7769C19.1687 54.9919 19.5412 54.9962 35.0085 54.9671C50.7954 54.9373 50.8428 54.9365 51.1626 54.701C51.3391 54.5711 51.5912 54.3226 51.7229 54.1486C51.9616 53.8333 51.9625 53.7825 51.9932 38.5774C52.0147 27.9157 51.9859 23.1409 51.8975 22.7196C51.5857 21.2327 50.374 19.6562 49.025 18.9821C47.7515 18.3458 47.6693 18.3397 40.2636 18.3397H33.4344V11.6056C33.4344 5.92819 33.4065 4.76577 33.2565 4.19808C32.7346 2.22239 31.1864 0.700645 29.172 0.18324C28.2068 -0.0646384 5.12712 -0.0593694 4.192 0.188967ZM8.15724 7.50297C8.3704 7.59083 8.68195 7.83996 8.84957 8.05657C9.4592 8.84488 9.39995 9.73754 8.69159 10.436C7.92758 11.1894 6.93439 11.1981 6.14575 10.4583C4.66525 9.0695 6.26273 6.72245 8.15724 7.50297ZM17.4503 7.50297C17.6635 7.59083 17.975 7.83996 18.1426 8.05657C18.7523 8.84488 18.693 9.73754 17.9847 10.436C17.2206 11.1894 16.2275 11.1981 15.4388 10.4583C13.9583 9.0695 15.5558 6.72245 17.4503 7.50297ZM26.7434 7.50297C26.9565 7.59083 27.2681 7.83996 27.4357 8.05657C28.0453 8.84488 27.9861 9.73754 27.2777 10.436C26.5137 11.1894 25.5205 11.1981 24.7319 10.4583C23.2514 9.0695 24.8489 6.72245 26.7434 7.50297ZM8.15724 16.6667C8.3704 16.7545 8.68195 17.0037 8.84957 17.2203C9.4592 18.0086 9.39995 18.9012 8.69159 19.5997C7.92758 20.3531 6.93439 20.3618 6.14575 19.622C4.66525 18.2332 6.26273 15.8861 8.15724 16.6667ZM17.4503 16.6667C17.6635 16.7545 17.975 17.0037 18.1426 17.2203C18.7523 18.0086 18.693 18.9012 17.9847 19.5997C17.2206 20.3531 16.2275 20.3618 15.4388 19.622C13.9583 18.2332 15.5558 15.8861 17.4503 16.6667ZM26.7434 16.6667C26.9565 16.7545 27.2681 17.0037 27.4357 17.2203C28.0453 18.0086 27.9861 18.9012 27.2777 19.5997C26.5137 20.3531 25.5205 20.3618 24.7319 19.622C23.2514 18.2332 24.8489 15.8861 26.7434 16.6667ZM47.4455 22.2987C47.6219 22.4286 47.8739 22.6771 48.0057 22.8511C48.2441 23.166 48.2453 23.2303 48.2756 37.0916C48.298 47.3443 48.2713 51.0572 48.1742 51.1724C48.0654 51.3018 46.7727 51.329 40.7385 51.329H33.4344L33.4389 48.7804C33.4428 46.5599 33.4633 46.2767 33.5978 46.5811C34.1082 47.7367 35.6662 48.0097 36.5845 47.1043C37.8896 45.8174 36.7206 43.7085 34.8898 44.0471C34.3963 44.1385 33.805 44.6114 33.5978 45.0805C33.4659 45.3793 33.4434 44.8242 33.4434 41.249C33.4434 37.6737 33.4659 37.1187 33.5978 37.4174C34.1082 38.573 35.6662 38.846 36.5845 37.9406C37.8896 36.6537 36.7206 34.5448 34.8898 34.8834C34.3963 34.9748 33.805 35.4477 33.5978 35.9168C33.4659 36.2156 33.4434 35.6605 33.4434 32.0853C33.4434 28.5101 33.4659 27.955 33.5978 28.2537C34.1082 29.4094 35.6662 29.6823 36.5845 28.7769C37.8896 27.49 36.7206 25.3811 34.8898 25.7197C34.3963 25.8111 33.805 26.284 33.5978 26.7531C33.4633 27.0575 33.4428 26.7739 33.4389 24.5512L33.4344 21.9999L40.2795 22.0312C46.9867 22.0618 47.1312 22.0673 47.4455 22.2987ZM8.15724 25.8304C8.3704 25.9182 8.68195 26.1674 8.84957 26.384C9.4592 27.1723 9.39995 28.0649 8.69159 28.7634C7.92758 29.5168 6.93439 29.5255 6.14575 28.7856C4.66525 27.3969 6.26273 25.0498 8.15724 25.8304ZM17.4503 25.8304C17.6635 25.9182 17.975 26.1674 18.1426 26.384C18.7523 27.1723 18.693 28.0649 17.9847 28.7634C17.2206 29.5168 16.2275 29.5255 15.4388 28.7856C13.9583 27.3969 15.5558 25.0498 17.4503 25.8304ZM26.7434 25.8304C26.9565 25.9182 27.2681 26.1674 27.4357 26.384C28.0453 27.1723 27.9861 28.0649 27.2777 28.7634C26.5137 29.5168 25.5205 29.5255 24.7319 28.7856C23.2514 27.3969 24.8489 25.0498 26.7434 25.8304ZM41.9666 25.8318C40.7946 26.3352 40.5178 27.8715 41.4359 28.7769C42.741 30.0639 44.8797 28.9112 44.5363 27.1058C44.3308 26.0261 43.0234 25.3779 41.9666 25.8318ZM8.15724 34.9941C8.3704 35.0819 8.68195 35.331 8.84957 35.5477C9.4592 36.336 9.39995 37.2286 8.69159 37.9271C7.92758 38.6805 6.93439 38.6892 6.14575 37.9493C4.66525 36.5606 6.26273 34.2135 8.15724 34.9941ZM17.4503 34.9941C17.6635 35.0819 17.975 35.331 18.1426 35.5477C18.7523 36.336 18.693 37.2286 17.9847 37.9271C17.2206 38.6805 16.2275 38.6892 15.4388 37.9493C13.9583 36.5606 15.5558 34.2135 17.4503 34.9941ZM26.7434 34.9941C26.9565 35.0819 27.2681 35.331 27.4357 35.5477C28.0453 36.336 27.9861 37.2286 27.2777 37.9271C26.5137 38.6805 25.5205 38.6892 24.7319 37.9493C23.2514 36.5606 24.8489 34.2135 26.7434 34.9941ZM41.9666 34.9955C40.7946 35.4989 40.5178 37.0352 41.4359 37.9406C42.741 39.2276 44.8797 38.0749 44.5363 36.2695C44.3308 35.1898 43.0234 34.5416 41.9666 34.9955ZM8.15724 44.1577C8.3704 44.2456 8.69542 44.5122 8.87954 44.7502C9.15729 45.1092 9.21432 45.2934 9.21432 45.8308C9.21432 46.3577 9.15589 46.5542 8.90138 46.8831C8.2475 47.7285 7.13454 47.8903 6.29862 47.2617C4.59451 45.9799 6.17479 43.3409 8.15724 44.1577ZM26.7434 44.1577C26.9565 44.2456 27.2816 44.5122 27.4657 44.7502C27.7434 45.1092 27.8005 45.2934 27.8005 45.8308C27.8005 46.3577 27.742 46.5542 27.4875 46.8831C26.8336 47.7285 25.7207 47.8903 24.8848 47.2617C23.1806 45.9799 24.7609 43.3409 26.7434 44.1577ZM41.9666 44.1592C40.7946 44.6626 40.5178 46.1988 41.4359 47.1043C42.741 48.3913 44.8797 47.2386 44.5363 45.4332C44.3308 44.3535 43.0234 43.7053 41.9666 44.1592Z" fill="#69B99D"/>
</svg>
